<svg viewBox="0 0 454.93 280.77" xmlns="http://www.w3.org/2000/svg">
  <g transform="matrix(1.3333 0 0 -1.3333 -180.53 935.8)">
    <g transform="translate(420.06 651.16)">
      <path d="m0 0-13.652-13.651h-21.445l-11.699-11.697v11.697h-17.548v56.544h64.344v-42.893zm-72.146 50.692-3.899-15.599v-70.19h17.55v-9.751h9.746l9.752 9.751h15.596l31.196 31.192v54.597h-79.941z" fill="#6441a5" fill-rule="evenodd"/>
    </g>
    <path d="m377.17 655.05h7.799v23.401h-7.799v-23.401zm21.446 0h7.799v23.401h-7.799v-23.401z" fill="#6441a5" fill-rule="evenodd"/><g transform="translate(468.81 565.36)">
    <path d="m0 0-13.646 13.645h-25.35v17.55h-21.451v-79.94h21.451v40.947h17.545v-40.947h21.451v48.745zm-68.241 13.645h-33.146l-13.649-13.645v-35.094l13.649-13.651h33.146v21.445h-25.35v19.502h25.35v21.443zm-54.594 0h-17.545v17.55h-21.451v-66.289l13.649-13.651h25.347v21.445h-17.545v19.502h17.545v21.443zm-46.795 17.55h-21.445v-9.752h21.445v9.752zm0-17.55h-21.445v-62.389h21.445v62.389zm-29.244 0h-21.447v-40.945h-7.797v40.945h-21.448v-40.945h-7.796v40.945h-21.451v-62.39h66.293l13.646 13.651v48.739zm-87.738 0h-17.546v17.55h-21.447v-66.289l13.648-13.651h25.345v21.445h-17.546v19.502h17.546v21.443zm294.4-9.745v-58.491l-29.244-19.499h-19.496v9.752l-13.648-9.752h-17.545v9.752l-9.746-9.752h-31.197l-9.752 9.752-1.952-9.752h-27.292l-11.161 9.752-0.625-9.752h-30.935l-1.094 9.752-8.374-9.752h-47.25l-9.75 3.9v-3.9h-25.344l-29.247 17.552-17.546 17.539v77.991h37.047l17.545-17.549h79.939v17.549h66.29v-17.549h17.548v-9.746l9.752 9.746h19.493l17.55 17.549h37.044v-17.549h21.448l17.542-17.543z" fill="#6441a5" fill-rule="evenodd"/>
    </g>
  </g>
</svg>
